HIERARCHY
ROOT Root
{
  OFFSET 0.0 0.0 0.0
  CHANNELS 6 Xposition Yposition Zposition Zrotation Yrotation Xrotation
  JOINT Hips
  {
    OFFSET 0.0 100.0 0.0
    CHANNELS 6 Xposition Yposition Zposition Zrotation Yrotation Xrotation
    JOINT Spine1
    {
      OFFSET 5.003913 -0.037094 -0.013727
      CHANNELS 3 Zrotation Yrotation Xrotation
      JOINT Spine2
      {
        OFFSET 7.125363 -1e-06 0.0
        CHANNELS 3 Zrotation Yrotation Xrotation
        JOINT Chest
        {
          OFFSET 7.594027 1e-06 0.0
          CHANNELS 3 Zrotation Yrotation Xrotation
          JOINT Neck1
          {
            OFFSET 26.313086 -0.460272 -0.181672
            CHANNELS 3 Zrotation Yrotation Xrotation
            JOINT Neck2
            {
              OFFSET 8.045911 0.0 0.0
              CHANNELS 3 Zrotation Yrotation Xrotation
              JOINT Head
              {
                OFFSET 6.432774 0.0 0.0
                CHANNELS 3 Zrotation Yrotation Xrotation
                JOINT HeadEnd
                {
                  OFFSET 16.169773 0.06451 0.00362
                  CHANNELS 3 Zrotation Yrotation Xrotation
                }
                JOINT Jaw
                {
                  OFFSET 0.108741 3.12938 0.002639
                  CHANNELS 3 Zrotation Yrotation Xrotation
                }
                JOINT LeftEye
                {
                  OFFSET 4.45173 8.166359 3.206392
                  CHANNELS 3 Zrotation Yrotation Xrotation
                }
                JOINT RightEye
                {
                  OFFSET 4.436895 8.135758 -3.222429
                  CHANNELS 3 Zrotation Yrotation Xrotation
                }
              }
            }
          }
          JOINT LeftShoulder
          {
            OFFSET 23.218927 5.195579 1.621656
            CHANNELS 3 Zrotation Yrotation Xrotation
            JOINT LeftArm
            {
              OFFSET 15.902118 2e-06 -2e-06
              CHANNELS 3 Zrotation Yrotation Xrotation
              JOINT LeftForeArm
              {
                OFFSET 28.739307 0.0 -1e-06
                CHANNELS 3 Zrotation Yrotation Xrotation
                JOINT LeftHand
                {
                  OFFSET 27.093981 -4e-06 0.0
                  CHANNELS 3 Zrotation Yrotation Xrotation
                  JOINT LeftHandThumb1
                  {
                    OFFSET 2.276781 3.380274 0.83384
                    CHANNELS 3 Zrotation Yrotation Xrotation
                    JOINT LeftHandThumb2
                    {
                      OFFSET 4.705309 -1e-06 -1e-06
                      CHANNELS 3 Zrotation Yrotation Xrotation
                      JOINT LeftHandThumb3
                      {
                        OFFSET 2.798515 0.0 3e-06
                        CHANNELS 3 Zrotation Yrotation Xrotation
                        JOINT LeftHandThumbEnd
                        {
                          OFFSET 3.180793 4e-06 -4e-06
                          CHANNELS 3 Zrotation Yrotation Xrotation
                        }
                      }
                    }
                  }
                  JOINT LeftHandIndex1
                  {
                    OFFSET 3.247786 2.352677 0.137192
                    CHANNELS 3 Zrotation Yrotation Xrotation
                    JOINT LeftHandIndex2
                    {
                      OFFSET 6.367095 1e-06 0.0
                      CHANNELS 3 Zrotation Yrotation Xrotation
                      JOINT LeftHandIndex3
                      {
                        OFFSET 3.662364 0.0 0.0
                        CHANNELS 3 Zrotation Yrotation Xrotation
                        JOINT LeftHandIndex4
                        {
                          OFFSET 2.329242 4e-06 -4e-06
                          CHANNELS 3 Zrotation Yrotation Xrotation
                          JOINT LeftHandIndexEnd
                          {
                            OFFSET 2.767823 1e-06 0.0
                            CHANNELS 3 Zrotation Yrotation Xrotation
                          }
                        }
                      }
                    }
                  }
                  JOINT LeftHandMiddle1
                  {
                    OFFSET 3.163612 0.945023 -0.406112
                    CHANNELS 3 Zrotation Yrotation Xrotation
                    JOINT LeftHandMiddle2
                    {
                      OFFSET 6.276789 3e-06 0.0
                      CHANNELS 3 Zrotation Yrotation Xrotation
                      JOINT LeftHandMiddle3
                      {
                        OFFSET 4.35652 -1e-06 4e-06
                        CHANNELS 3 Zrotation Yrotation Xrotation
                        JOINT LeftHandMiddle4
                        {
                          OFFSET 2.996877 0.0 8e-06
                          CHANNELS 3 Zrotation Yrotation Xrotation
                          JOINT LeftHandMiddleEnd
                          {
                            OFFSET 2.323256 3e-06 -4e-06
                            CHANNELS 3 Zrotation Yrotation Xrotation
                          }
                        }
                      }
                    }
                  }
                  JOINT LeftHandRing1
                  {
                    OFFSET 2.882606 -0.309162 0.107445
                    CHANNELS 3 Zrotation Yrotation Xrotation
                    JOINT LeftHandRing2
                    {
                      OFFSET 6.033198 0.0 4e-06
                      CHANNELS 3 Zrotation Yrotation Xrotation
                      JOINT LeftHandRing3
                      {
                        OFFSET 4.350578 3e-06 0.0
                        CHANNELS 3 Zrotation Yrotation Xrotation
                        JOINT LeftHandRing4
                        {
                          OFFSET 2.651321 2e-06 -7e-06
                          CHANNELS 3 Zrotation Yrotation Xrotation
                          JOINT LeftHandRingEnd
                          {
                            OFFSET 1.937663 1e-06 -4e-06
                            CHANNELS 3 Zrotation Yrotation Xrotation
                          }
                        }
                      }
                    }
                  }
                  JOINT LeftHandPinky1
                  {
                    OFFSET 2.865315 -1.525436 0.575687
                    CHANNELS 3 Zrotation Yrotation Xrotation
                    JOINT LeftHandPinky2
                    {
                      OFFSET 5.54936 1e-06 -8e-06
                      CHANNELS 3 Zrotation Yrotation Xrotation
                      JOINT LeftHandPinky3
                      {
                        OFFSET 3.070974 0.0 -4e-06
                        CHANNELS 3 Zrotation Yrotation Xrotation
                        JOINT LeftHandPinky4
                        {
                          OFFSET 1.549672 1e-06 0.0
                          CHANNELS 3 Zrotation Yrotation Xrotation
                          JOINT LeftHandPinkyEnd
                          {
                            OFFSET 1.952123 0.0 0.0
                            CHANNELS 3 Zrotation Yrotation Xrotation
                          }
                        }
                      }
                    }
                  }
                }
              }
            }
          }
          JOINT RightShoulder
          {
            OFFSET 23.161716 5.296122 -1.380114
            CHANNELS 3 Zrotation Yrotation Xrotation
            JOINT RightArm
            {
              OFFSET -16.027195 -2e-06 1.1e-05
              CHANNELS 3 Zrotation Yrotation Xrotation
              JOINT RightForeArm
              {
                OFFSET -28.736639 4e-06 2e-06
                CHANNELS 3 Zrotation Yrotation Xrotation
                JOINT RightHand
                {
                  OFFSET -27.133619 6e-06 0.0
                  CHANNELS 3 Zrotation Yrotation Xrotation
                  JOINT RightHandThumb1
                  {
                    OFFSET -2.274328 -3.351035 -0.83067
                    CHANNELS 3 Zrotation Yrotation Xrotation
                    JOINT RightHandThumb2
                    {
                      OFFSET -4.703594 -3e-06 2e-06
                      CHANNELS 3 Zrotation Yrotation Xrotation
                      JOINT RightHandThumb3
                      {
                        OFFSET -2.794935 -4e-06 -3e-06
                        CHANNELS 3 Zrotation Yrotation Xrotation
                        JOINT RightHandThumbEnd
                        {
                          OFFSET -3.183852 4e-06 1e-06
                          CHANNELS 3 Zrotation Yrotation Xrotation
                        }
                      }
                    }
                  }
                  JOINT RightHandIndex1
                  {
                    OFFSET -3.253496 -2.33755 -0.127667
                    CHANNELS 3 Zrotation Yrotation Xrotation
                    JOINT RightHandIndex2
                    {
                      OFFSET -6.344434 0.0 0.0
                      CHANNELS 3 Zrotation Yrotation Xrotation
                      JOINT RightHandIndex3
                      {
                        OFFSET -3.654871 0.0 -8e-06
                        CHANNELS 3 Zrotation Yrotation Xrotation
                        JOINT RightHandIndex4
                        {
                          OFFSET -2.327586 -1e-06 0.0
                          CHANNELS 3 Zrotation Yrotation Xrotation
                          JOINT RightHandIndexEnd
                          {
                            OFFSET -2.770001 3e-06 8e-06
                            CHANNELS 3 Zrotation Yrotation Xrotation
                          }
                        }
                      }
                    }
                  }
                  JOINT RightHandMiddle1
                  {
                    OFFSET -3.168223 -0.944764 0.411762
                    CHANNELS 3 Zrotation Yrotation Xrotation
                    JOINT RightHandMiddle2
                    {
                      OFFSET -6.266691 -1e-06 -4e-06
                      CHANNELS 3 Zrotation Yrotation Xrotation
                      JOINT RightHandMiddle3
                      {
                        OFFSET -4.348901 0.0 0.0
                        CHANNELS 3 Zrotation Yrotation Xrotation
                        JOINT RightHandMiddle4
                        {
                          OFFSET -3.00024 2e-06 -4e-06
                          CHANNELS 3 Zrotation Yrotation Xrotation
                          JOINT RightHandMiddleEnd
                          {
                            OFFSET -2.321477 -4e-06 -4e-06
                            CHANNELS 3 Zrotation Yrotation Xrotation
                          }
                        }
                      }
                    }
                  }
                  JOINT RightHandRing1
                  {
                    OFFSET -2.885654 0.293261 -0.119232
                    CHANNELS 3 Zrotation Yrotation Xrotation
                    JOINT RightHandRing2
                    {
                      OFFSET -6.032835 -1e-06 -4e-06
                      CHANNELS 3 Zrotation Yrotation Xrotation
                      JOINT RightHandRing3
                      {
                        OFFSET -4.33881 0.0 -4e-06
                        CHANNELS 3 Zrotation Yrotation Xrotation
                        JOINT RightHandRing4
                        {
                          OFFSET -2.654903 -4e-06 -4e-06
                          CHANNELS 3 Zrotation Yrotation Xrotation
                          JOINT RightHandRingEnd
                          {
                            OFFSET -1.935122 0.0 4e-06
                            CHANNELS 3 Zrotation Yrotation Xrotation
                          }
                        }
                      }
                    }
                  }
                  JOINT RightHandPinky1
                  {
                    OFFSET -2.866241 1.503904 -0.60527
                    CHANNELS 3 Zrotation Yrotation Xrotation
                    JOINT RightHandPinky2
                    {
                      OFFSET -5.553177 -2e-06 0.0
                      CHANNELS 3 Zrotation Yrotation Xrotation
                      JOINT RightHandPinky3
                      {
                        OFFSET -3.062664 -1e-06 -4e-06
                        CHANNELS 3 Zrotation Yrotation Xrotation
                        JOINT RightHandPinky4
                        {
                          OFFSET -1.546529 2e-06 4e-06
                          CHANNELS 3 Zrotation Yrotation Xrotation
                          JOINT RightHandPinkyEnd
                          {
                            OFFSET -1.952341 0.0 -4e-06
                            CHANNELS 3 Zrotation Yrotation Xrotation
                          }
                        }
                      }
                    }
                  }
                }
              }
            }
          }
        }
      }
    }
    JOINT LeftLeg
    {
      OFFSET -8.443107 2.567604 10.043214
      CHANNELS 3 Zrotation Yrotation Xrotation
      JOINT LeftShin
      {
        OFFSET 43.229198 1e-06 -1e-06
        CHANNELS 3 Zrotation Yrotation Xrotation
        JOINT LeftFoot
        {
          OFFSET 42.298611 1e-06 1e-06
          CHANNELS 3 Zrotation Yrotation Xrotation
          JOINT LeftToeBase
          {
            OFFSET 14.165858 1e-06 0.0
            CHANNELS 3 Zrotation Yrotation Xrotation
            JOINT LeftToeEnd
            {
              OFFSET 6.7141 -0.234461 0.0
              CHANNELS 3 Zrotation Yrotation Xrotation
            }
          }
        }
      }
    }
    JOINT RightLeg
    {
      OFFSET -8.303923 2.592729 -10.047278
      CHANNELS 3 Zrotation Yrotation Xrotation
      JOINT RightShin
      {
        OFFSET -43.369682 0.0 1e-06
        CHANNELS 3 Zrotation Yrotation Xrotation
        JOINT RightFoot
        {
          OFFSET -42.260784 4e-06 2e-06
          CHANNELS 3 Zrotation Yrotation Xrotation
          JOINT RightToeBase
          {
            OFFSET -14.222245 -2e-06 -1e-06
            CHANNELS 3 Zrotation Yrotation Xrotation
            JOINT RightToeEnd
            {
              OFFSET -6.660062 0.232574 -2e-06
              CHANNELS 3 Zrotation Yrotation Xrotation
            }
          }
        }
      }
    }
  }
}
MOTION
Frames: 4
Frame Time: 0.03333333333333333
0.0 0.0 0.0 0.0 -0.0 0.0 0.64404 99.952087 0.027046 91.494453 2.674721 87.85537 -7.765576 0.227966 -0.080593 -13.712617 -0.966203 -1.264013 20.620695 -0.181302 -3.001984 12.20712 -8.769591 2.521531 -2.304073 -0.851426 -1.582603 -17.484837 3.017507 -7.093921 -0.000171 -0.000426 -0.002784 -0.159208 0.034521 0.140991 0.066184 0.139531 0.208949 0.023134 -0.081049 0.08854 -93.541992 -75.259201 102.617409 54.561172 6.378114 -50.663818 126.779228 2.001275 0.044539 8.931657 3.77371 -37.260433 17.59664 -26.271978 52.333328 -19.478596 -14.41902 29.391371 -0.000818 -8.780066 0.000874 17.215467 -17.970924 5.287259 -0.60815 -1.803774 -3.881075 -4.799511 -11.020642 -2.929439 0.010978 -20.942327 -0.000655 -5.025032 -25.004854 -4.028245 0.002642 -0.006569 0.000224 -10.630492 -5.682593 -3.548862 10.580683 -17.890408 -3.119792 0.002198 -13.811079 -0.000213 -0.501692 -31.140707 -4.023551 -11.10939 -60.190449 6.938276 -13.979841 -7.132995 -2.854954 13.779591 -8.382276 -3.226408 0.362927 -34.189102 0.762988 -0.968366 -17.71213 2.621016 0.000264 0.000437 -0.001837 -17.345238 -20.070509 -4.183181 21.767662 -1.641782 3.850496 0.005145 -6.332351 -0.002597 -1.707351 -22.583466 -6.194715 0.00743 0.00019 -0.000912 74.028297 -78.736 121.821945 60.988609 -61.804375 0.627196 19.616899 -0.548665 -0.122792 -1.793958 0.607944 6.004922 22.158808 -20.365482 49.895149 -16.691713 -16.73991 28.476719 -0.009288 -12.688319 -0.009578 16.295227 -18.522062 2.543193 -0.110383 -1.519986 -4.262417 -5.021235 -5.596326 -2.955753 0.009124 -11.001789 -0.002275 -6.092768 -15.860635 -3.861228 0.004802 -0.000572 -0.008797 -10.268779 -5.669771 -4.3448 11.015325 -11.294862 -2.360083 -1.373006 -14.2126 -6.325362 -0.62171 -26.875965 -3.794909 -4.408302 -50.092091 -4.505609 -13.701725 -7.352448 -3.72121 18.145815 -14.03712 -3.254944 -0.008666 -18.758596 0.018662 -0.429396 -8.454246 2.550873 0.001413 -0.007185 0.010594 -15.899883 -20.068392 -5.483261 30.411154 -7.196954 1.737162 0.002349 -8.163625 0.011394 -1.870256 -22.820133 -6.1664 -0.010447 0.001466 -0.008722 -177.447189 -2.006409 -5.924545 8.588694 -0.043146 0.188349 -77.660088 1.925281 -5.460732 -4.17084 1.494662 2.151309 -0.996915 -2.7e-05 5.8e-05 -1.886314 -4.36768 9.202834 16.219601 -0.137222 0.111301 -80.862976 -4.847403 -8.00385 -4.508502 0.729469 1.700982 -0.991692 0.000268 -0.000133 
0.0 0.0 0.0 0.0 -0.0 0.0 0.500276 99.90329 -0.060281 91.451935 2.726259 88.069809 -7.812374 0.162525 -0.094352 -13.752148 -0.996215 -1.14695 20.850414 -0.108349 -3.263968 12.153191 -8.965866 2.508662 -2.364059 -0.576345 -1.654853 -17.499561 3.311302 -6.736587 0.000319 0.00022 -0.00699 -0.126316 0.018455 0.146712 0.01797 0.115893 0.180858 -0.041136 -0.092567 0.123027 -93.484749 -75.303017 102.213837 54.438313 6.16883 -51.976135 126.743477 0.783704 -0.115311 8.176816 4.107617 -37.925896 17.580101 -26.30027 52.485256 -19.4431 -14.422607 29.425289 -0.003976 -8.774078 0.004511 17.452562 -18.042131 5.256835 -0.611071 -1.798691 -3.891899 -4.801372 -11.020913 -2.940096 0.004748 -20.930618 -0.012336 -5.02077 -24.986954 -4.035133 0.000879 1.7e-05 -0.000508 -10.63181 -5.666033 -3.564706 10.571108 -17.903889 -3.11997 -0.003911 -13.808501 -0.002606 -0.496941 -31.128441 -4.022445 -11.339264 -60.931305 7.435331 -13.979124 -7.130217 -2.872243 13.764125 -8.391886 -3.224635 0.356182 -34.154221 0.760199 -0.967292 -17.6973 2.612948 -0.003997 -0.012875 0.000839 -17.348528 -20.062315 -4.207102 21.777817 -1.630776 3.861264 -0.001525 -6.340065 -0.000156 -1.706963 -22.542707 -6.191364 -0.004802 0.004131 0.00098 74.505432 -79.030479 121.663017 61.841209 -61.745674 -0.28675 19.269476 -0.657164 -0.118838 -1.582117 0.44641 6.132343 22.198931 -20.432758 50.049202 -16.695854 -16.759026 28.485817 0.002604 -12.700008 0.016314 16.173174 -18.218666 2.566695 -0.109465 -1.514333 -4.2733 -5.033983 -5.603659 -2.953525 0.001336 -11.016138 -0.006279 -6.111678 -15.897079 -3.839697 -0.004081 -0.00189 0.019021 -10.280186 -5.669758 -4.327191 11.031362 -11.294235 -2.385236 -1.386298 -14.232161 -6.311483 -0.599697 -26.915216 -3.844818 -4.852837 -50.104248 -3.921348 -13.715797 -7.361263 -3.711954 18.154774 -14.05635 -3.246169 0.001947 -18.80912 -0.012911 -0.448485 -8.468424 2.575222 0.007954 -0.002209 -0.005741 -15.914004 -20.089001 -5.494985 30.406387 -7.198488 1.743584 0.021265 -8.170188 -0.004144 -1.865133 -22.858076 -6.132277 -0.000731 0.004703 -0.005102 -177.961243 -2.221514 -5.846493 9.618757 -0.005011 0.180845 -78.06266 2.124124 -5.945495 -4.169027 1.565471 2.159005 -0.997213 0.000176 0.000546 -2.065709 -4.330897 9.106546 16.68565 -0.043848 -0.034074 -81.059082 -4.675693 -8.089414 -4.508586 0.763512 1.700984 -0.998381 -4e-05 -0.000553 
0.0 0.0 0.0 0.0 -0.0 0.0 0.503451 99.926453 -0.094052 91.459969 2.75319 87.991959 -7.785229 0.127441 -0.059353 -13.751251 -0.998823 -1.149624 20.851223 -0.090249 -3.228943 12.100056 -8.904788 2.453375 -2.409666 -0.565114 -1.610514 -17.61025 3.256295 -6.856561 0.003246 -0.001343 -0.002347 -0.127655 0.017645 0.167838 0.032713 0.12044 0.218446 -0.02189 -0.087914 0.141843 -93.7173 -75.354752 102.461975 54.376293 6.392836 -51.722313 126.530045 0.671978 -0.07901 7.894322 4.281772 -38.281044 17.619942 -26.317352 52.454292 -19.498728 -14.442284 29.438932 0.006608 -8.789255 0.003744 17.349136 -18.055988 5.352043 -0.607111 -1.79474 -3.889365 -4.803253 -11.029376 -2.940005 0.011001 -20.933422 0.000587 -5.018246 -24.990761 -4.027354 0.00569 -0.000321 0.001879 -10.639804 -5.674172 -3.553847 10.591702 -17.89155 -3.123299 0.005905 -13.793944 0.004484 -0.496187 -31.096546 -4.011882 -11.211287 -60.689346 7.358652 -13.993067 -7.140645 -2.859632 13.798062 -8.375886 -3.232569 0.365071 -34.121025 0.771381 -0.959144 -17.714985 2.621236 0.002696 0.006021 -0.001301 -17.344074 -20.04237 -4.199333 21.768183 -1.642586 3.847688 0.007498 -6.326862 0.000943 -1.697091 -22.522774 -6.169975 -0.006489 -4.5e-05 -0.001591 74.304672 -78.987991 121.728477 61.75444 -61.889225 -0.135737 19.219469 -0.671428 -0.111629 -1.643254 0.436522 6.03598 22.163115 -20.461533 50.110119 -16.676748 -16.747129 28.537983 0.009525 -12.684012 -0.003297 16.080853 -18.100634 2.567807 -0.106471 -1.526921 -4.254732 -5.043888 -5.614538 -2.989741 -0.008065 -11.031436 0.003596 -6.12962 -15.922013 -3.836765 0.00254 -0.001836 0.000397 -10.288568 -5.693791 -4.352268 11.014331 -11.29458 -2.346354 -1.399705 -14.248039 -6.345264 -0.645669 -26.923887 -3.839108 -4.797395 -50.080803 -4.013147 -13.710499 -7.378392 -3.717509 18.124041 -14.031729 -3.249879 -0.026409 -18.809631 0.023744 -0.446154 -8.470545 2.567178 -0.005133 0.001834 0.009593 -15.922969 -20.120075 -5.477428 30.40015 -7.168518 1.74132 0.001332 -8.177163 -0.001348 -1.874071 -22.888672 -6.168396 -0.006772 0.003088 0.005406 -177.704422 -2.178132 -5.866596 9.165436 -0.006033 0.151 -77.999001 2.11132 -5.9448 -4.117188 1.549287 2.159079 -0.998455 0.000556 -0.000554 -1.952339 -4.371259 9.068365 16.495264 -0.058773 -0.029774 -80.960052 -4.57588 -8.018613 -4.434643 0.756039 1.694494 -1.001093 0.000134 0.000374 
0.0 0.0 0.0 0.0 -0.0 0.0 0.597764 99.922066 -0.026011 91.436607 2.751741 87.947487 -7.800111 0.122746 -0.038833 -13.718505 -0.999148 -1.15797 20.820415 -0.089747 -3.223356 12.037465 -8.826354 2.448586 -2.414043 -0.564369 -1.684055 -17.686804 3.236541 -6.900118 0.000139 -0.000162 -0.001798 -0.135508 0.017294 0.148895 0.033433 0.125465 0.186434 -0.020364 -0.100003 0.118359 -93.749191 -75.349213 102.517708 54.331711 6.59859 -51.447525 126.223877 0.528381 -0.044628 7.825701 4.28988 -38.630898 17.610567 -26.339655 52.448647 -19.443356 -14.431367 29.392366 -0.003587 -8.780329 0.005648 17.208525 -18.048126 5.379459 -0.611502 -1.810444 -3.893619 -4.802319 -11.016127 -2.941642 0.007458 -20.947725 0.004206 -5.019377 -24.980597 -4.020423 -0.001223 -3e-06 0.00085 -10.646447 -5.689695 -3.558482 10.597964 -17.917715 -3.128444 0.001491 -13.822281 0.002126 -0.491974 -31.215963 -4.033074 -11.165851 -60.857349 7.312997 -13.996764 -7.164674 -2.86263 13.792249 -8.384518 -3.233132 0.33423 -34.168518 0.792215 -0.972856 -17.725237 2.628278 0.007958 0.011957 0.005357 -17.371696 -20.087765 -4.192615 21.803932 -1.647024 3.851044 0.003119 -6.322636 0.003419 -1.714035 -22.539209 -6.179474 -0.003693 0.000475 -0.005293 74.37011 -78.93174 121.548134 61.638607 -61.967003 -0.061933 19.276245 -0.744311 -0.141785 -1.631349 0.562564 5.975841 22.184334 -20.443535 50.048981 -16.690899 -16.750183 28.516874 -0.000497 -12.677165 -0.001537 16.046808 -18.105526 2.578162 -0.107055 -1.507117 -4.302022 -5.04617 -5.610769 -2.938024 0.004899 -11.01088 0.007697 -6.112294 -15.880924 -3.859237 -0.0037 -0.001432 0.009464 -10.282165 -5.667402 -4.349288 11.029273 -11.299498 -2.380634 -1.37657 -14.230065 -6.316218 -0.623789 -26.929453 -3.823945 -4.781056 -50.101921 -3.907526 -13.702226 -7.354733 -3.742761 18.128656 -14.047798 -3.231223 0.001984 -18.777943 0.008056 -0.444215 -8.450766 2.553075 0.013216 0.003333 0.0 -15.922593 -20.078405 -5.490047 30.421274 -7.186463 1.735339 -0.004823 -8.150089 0.022337 -1.859938 -22.812099 -6.152149 0.005254 -0.006902 -0.00111 -177.715927 -2.116039 -5.92314 9.329036 -0.005916 0.140029 -78.239227 2.086574 -5.842149 -4.126165 1.543324 2.146309 -0.999022 -0.000812 2.5e-05 -1.910814 -4.350162 9.085986 16.419367 -0.067203 -0.026276 -81.045631 -4.533788 -7.953717 -4.423912 0.753013 1.691819 -0.994501 -0.000172 2.9e-05 
